<mxfile host="app.diagrams.net" modified="2024-04-12T11:11:04.014Z" agent="Mozilla/5.0 (Windows NT 10.0; Win64; x64) AppleWebKit/537.36 (KHTML, like Gecko) Chrome/123.0.0.0 Safari/537.36" etag="1YPCpvt6OIHnb5V407Du" version="24.2.3" type="device">
  <diagram name="Страница — 1" id="UcfjvmZWFk2_USf1i6st">
    <mxGraphModel dx="2086" dy="693" grid="1" gridSize="10" guides="1" tooltips="1" connect="1" arrows="1" fold="1" page="1" pageScale="1" pageWidth="827" pageHeight="1169" math="0" shadow="0">
      <root>
        <mxCell id="0" />
        <mxCell id="1" parent="0" />
        <mxCell id="9l9PwQH1jKQ2nE-yAXZs-1" value="&lt;font face=&quot;Times New Roman&quot;&gt;Администратор&lt;/font&gt;" style="shape=umlActor;verticalLabelPosition=bottom;verticalAlign=top;html=1;outlineConnect=0;" vertex="1" parent="1">
          <mxGeometry x="520" y="120" width="90" height="170" as="geometry" />
        </mxCell>
        <mxCell id="9l9PwQH1jKQ2nE-yAXZs-2" value="&lt;font class=&quot;default_cursor_cs&quot; face=&quot;Times New Roman&quot;&gt;Клиент&lt;/font&gt;" style="shape=umlActor;verticalLabelPosition=bottom;verticalAlign=top;html=1;outlineConnect=0;" vertex="1" parent="1">
          <mxGeometry x="110" y="120" width="90" height="170" as="geometry" />
        </mxCell>
        <mxCell id="9l9PwQH1jKQ2nE-yAXZs-3" value="&lt;font face=&quot;Times New Roman&quot;&gt;Нотариус&lt;/font&gt;" style="shape=umlActor;verticalLabelPosition=bottom;verticalAlign=top;html=1;outlineConnect=0;" vertex="1" parent="1">
          <mxGeometry x="324" y="360" width="90" height="170" as="geometry" />
        </mxCell>
        <mxCell id="9l9PwQH1jKQ2nE-yAXZs-4" value="&lt;font class=&quot;default_cursor_cs&quot; face=&quot;Times New Roman&quot;&gt;Изучение информации об услугах&lt;/font&gt;" style="ellipse;whiteSpace=wrap;html=1;" vertex="1" parent="1">
          <mxGeometry x="304" y="180" width="110" height="50" as="geometry" />
        </mxCell>
        <mxCell id="9l9PwQH1jKQ2nE-yAXZs-5" value="&lt;font face=&quot;Times New Roman&quot;&gt;Просмотр услуг&lt;/font&gt;" style="ellipse;whiteSpace=wrap;html=1;" vertex="1" parent="1">
          <mxGeometry x="304" y="130" width="100" height="30" as="geometry" />
        </mxCell>
        <mxCell id="9l9PwQH1jKQ2nE-yAXZs-6" value="&lt;font class=&quot;default_cursor_cs&quot; face=&quot;Times New Roman&quot;&gt;Приобретение услуги&lt;/font&gt;" style="ellipse;whiteSpace=wrap;html=1;" vertex="1" parent="1">
          <mxGeometry x="309" y="250" width="95" height="40" as="geometry" />
        </mxCell>
        <mxCell id="9l9PwQH1jKQ2nE-yAXZs-10" value="" style="endArrow=classic;html=1;rounded=0;entryX=0;entryY=0.5;entryDx=0;entryDy=0;" edge="1" parent="1" target="9l9PwQH1jKQ2nE-yAXZs-5">
          <mxGeometry width="50" height="50" relative="1" as="geometry">
            <mxPoint x="210" y="200" as="sourcePoint" />
            <mxPoint x="260" y="180" as="targetPoint" />
          </mxGeometry>
        </mxCell>
        <mxCell id="9l9PwQH1jKQ2nE-yAXZs-11" value="" style="endArrow=classic;html=1;rounded=0;entryX=0;entryY=0.5;entryDx=0;entryDy=0;" edge="1" parent="1" target="9l9PwQH1jKQ2nE-yAXZs-4">
          <mxGeometry width="50" height="50" relative="1" as="geometry">
            <mxPoint x="210" y="210" as="sourcePoint" />
            <mxPoint x="304" y="175" as="targetPoint" />
          </mxGeometry>
        </mxCell>
        <mxCell id="9l9PwQH1jKQ2nE-yAXZs-12" value="" style="endArrow=classic;html=1;rounded=0;entryX=0;entryY=0.5;entryDx=0;entryDy=0;" edge="1" parent="1" target="9l9PwQH1jKQ2nE-yAXZs-6">
          <mxGeometry width="50" height="50" relative="1" as="geometry">
            <mxPoint x="210" y="220" as="sourcePoint" />
            <mxPoint x="304" y="210" as="targetPoint" />
          </mxGeometry>
        </mxCell>
        <mxCell id="9l9PwQH1jKQ2nE-yAXZs-13" value="&lt;font class=&quot;default_cursor_cs&quot; face=&quot;Times New Roman&quot;&gt;Удаление услуг&lt;/font&gt;" style="ellipse;whiteSpace=wrap;html=1;" vertex="1" parent="1">
          <mxGeometry x="717" y="170" width="110" height="50" as="geometry" />
        </mxCell>
        <mxCell id="9l9PwQH1jKQ2nE-yAXZs-14" value="&lt;font class=&quot;default_cursor_cs&quot; face=&quot;Times New Roman&quot;&gt;Добавление услуг&lt;/font&gt;" style="ellipse;whiteSpace=wrap;html=1;" vertex="1" parent="1">
          <mxGeometry x="717" y="110" width="100" height="40" as="geometry" />
        </mxCell>
        <mxCell id="9l9PwQH1jKQ2nE-yAXZs-15" value="" style="endArrow=classic;html=1;rounded=0;entryX=0;entryY=0.5;entryDx=0;entryDy=0;" edge="1" parent="1" target="9l9PwQH1jKQ2nE-yAXZs-14">
          <mxGeometry width="50" height="50" relative="1" as="geometry">
            <mxPoint x="623" y="190" as="sourcePoint" />
            <mxPoint x="673" y="170" as="targetPoint" />
          </mxGeometry>
        </mxCell>
        <mxCell id="9l9PwQH1jKQ2nE-yAXZs-16" value="" style="endArrow=classic;html=1;rounded=0;entryX=0;entryY=0.5;entryDx=0;entryDy=0;" edge="1" parent="1" target="9l9PwQH1jKQ2nE-yAXZs-13">
          <mxGeometry width="50" height="50" relative="1" as="geometry">
            <mxPoint x="623" y="200" as="sourcePoint" />
            <mxPoint x="717" y="165" as="targetPoint" />
          </mxGeometry>
        </mxCell>
        <mxCell id="9l9PwQH1jKQ2nE-yAXZs-17" value="" style="endArrow=classic;html=1;rounded=0;entryX=0;entryY=0.5;entryDx=0;entryDy=0;" edge="1" parent="1" target="9l9PwQH1jKQ2nE-yAXZs-18">
          <mxGeometry width="50" height="50" relative="1" as="geometry">
            <mxPoint x="620" y="210" as="sourcePoint" />
            <mxPoint x="722" y="260" as="targetPoint" />
          </mxGeometry>
        </mxCell>
        <mxCell id="9l9PwQH1jKQ2nE-yAXZs-18" value="&lt;font class=&quot;default_cursor_cs&quot; face=&quot;Times New Roman&quot;&gt;Изменение информации об&amp;nbsp; услугах&lt;/font&gt;" style="ellipse;whiteSpace=wrap;html=1;" vertex="1" parent="1">
          <mxGeometry x="732" y="240" width="108" height="50" as="geometry" />
        </mxCell>
        <mxCell id="9l9PwQH1jKQ2nE-yAXZs-19" value="&lt;font class=&quot;default_cursor_cs&quot; face=&quot;Times New Roman&quot;&gt;Работа с клиентом&lt;/font&gt;" style="ellipse;whiteSpace=wrap;html=1;" vertex="1" parent="1">
          <mxGeometry x="524" y="450" width="110" height="40" as="geometry" />
        </mxCell>
        <mxCell id="9l9PwQH1jKQ2nE-yAXZs-20" value="&lt;font class=&quot;default_cursor_cs&quot; face=&quot;Times New Roman&quot;&gt;Ознакомление с услугой&lt;/font&gt;" style="ellipse;whiteSpace=wrap;html=1;" vertex="1" parent="1">
          <mxGeometry x="524" y="390" width="100" height="40" as="geometry" />
        </mxCell>
        <mxCell id="9l9PwQH1jKQ2nE-yAXZs-21" value="" style="endArrow=classic;html=1;rounded=0;entryX=0;entryY=0.5;entryDx=0;entryDy=0;" edge="1" parent="1" target="9l9PwQH1jKQ2nE-yAXZs-20">
          <mxGeometry width="50" height="50" relative="1" as="geometry">
            <mxPoint x="420" y="450" as="sourcePoint" />
            <mxPoint x="480" y="450" as="targetPoint" />
          </mxGeometry>
        </mxCell>
        <mxCell id="9l9PwQH1jKQ2nE-yAXZs-22" value="" style="endArrow=classic;html=1;rounded=0;entryX=0;entryY=0.5;entryDx=0;entryDy=0;" edge="1" parent="1" target="9l9PwQH1jKQ2nE-yAXZs-19">
          <mxGeometry width="50" height="50" relative="1" as="geometry">
            <mxPoint x="420" y="460" as="sourcePoint" />
            <mxPoint x="524" y="445" as="targetPoint" />
          </mxGeometry>
        </mxCell>
        <mxCell id="9l9PwQH1jKQ2nE-yAXZs-25" value="&lt;font class=&quot;default_cursor_cs&quot; face=&quot;Times New Roman&quot;&gt;Клиент&lt;/font&gt;" style="rounded=0;whiteSpace=wrap;html=1;" vertex="1" parent="1">
          <mxGeometry x="40" y="640" width="120" height="30" as="geometry" />
        </mxCell>
        <mxCell id="9l9PwQH1jKQ2nE-yAXZs-26" value="&lt;font class=&quot;default_cursor_cs&quot; face=&quot;Times New Roman&quot;&gt;Услуга&lt;/font&gt;" style="rounded=0;whiteSpace=wrap;html=1;" vertex="1" parent="1">
          <mxGeometry x="184" y="640" width="120" height="30" as="geometry" />
        </mxCell>
        <mxCell id="9l9PwQH1jKQ2nE-yAXZs-27" value="&lt;font class=&quot;default_cursor_cs&quot; face=&quot;Times New Roman&quot;&gt;Администратор&lt;/font&gt;" style="rounded=0;whiteSpace=wrap;html=1;" vertex="1" parent="1">
          <mxGeometry x="330" y="640" width="120" height="30" as="geometry" />
        </mxCell>
        <mxCell id="9l9PwQH1jKQ2nE-yAXZs-28" value="&lt;font class=&quot;default_cursor_cs&quot; face=&quot;Times New Roman&quot;&gt;Нотариус&lt;/font&gt;" style="rounded=0;whiteSpace=wrap;html=1;" vertex="1" parent="1">
          <mxGeometry x="480" y="640" width="120" height="30" as="geometry" />
        </mxCell>
        <mxCell id="9l9PwQH1jKQ2nE-yAXZs-29" value="" style="endArrow=none;dashed=1;html=1;rounded=0;entryX=0.5;entryY=1;entryDx=0;entryDy=0;" edge="1" parent="1" target="9l9PwQH1jKQ2nE-yAXZs-25">
          <mxGeometry width="50" height="50" relative="1" as="geometry">
            <mxPoint x="100" y="880" as="sourcePoint" />
            <mxPoint x="140" y="740" as="targetPoint" />
          </mxGeometry>
        </mxCell>
        <mxCell id="9l9PwQH1jKQ2nE-yAXZs-30" value="" style="endArrow=none;dashed=1;html=1;rounded=0;entryX=0.5;entryY=1;entryDx=0;entryDy=0;" edge="1" parent="1" target="9l9PwQH1jKQ2nE-yAXZs-26">
          <mxGeometry width="50" height="50" relative="1" as="geometry">
            <mxPoint x="244" y="880" as="sourcePoint" />
            <mxPoint x="280" y="760" as="targetPoint" />
          </mxGeometry>
        </mxCell>
        <mxCell id="9l9PwQH1jKQ2nE-yAXZs-31" value="" style="endArrow=none;dashed=1;html=1;rounded=0;entryX=0.5;entryY=1;entryDx=0;entryDy=0;" edge="1" parent="1" target="9l9PwQH1jKQ2nE-yAXZs-27">
          <mxGeometry width="50" height="50" relative="1" as="geometry">
            <mxPoint x="390" y="880" as="sourcePoint" />
            <mxPoint x="430" y="780" as="targetPoint" />
          </mxGeometry>
        </mxCell>
        <mxCell id="9l9PwQH1jKQ2nE-yAXZs-32" value="" style="endArrow=none;dashed=1;html=1;rounded=0;entryX=0.5;entryY=1;entryDx=0;entryDy=0;" edge="1" parent="1" target="9l9PwQH1jKQ2nE-yAXZs-28">
          <mxGeometry width="50" height="50" relative="1" as="geometry">
            <mxPoint x="540" y="880" as="sourcePoint" />
            <mxPoint x="570" y="750" as="targetPoint" />
          </mxGeometry>
        </mxCell>
        <mxCell id="9l9PwQH1jKQ2nE-yAXZs-38" value="" style="endArrow=classic;html=1;rounded=0;" edge="1" parent="1">
          <mxGeometry width="50" height="50" relative="1" as="geometry">
            <mxPoint x="386" y="700" as="sourcePoint" />
            <mxPoint x="240" y="700" as="targetPoint" />
          </mxGeometry>
        </mxCell>
        <mxCell id="9l9PwQH1jKQ2nE-yAXZs-42" value="&lt;font class=&quot;default_cursor_cs&quot; face=&quot;Times New Roman&quot;&gt;Добавление услуги&lt;/font&gt;" style="edgeLabel;html=1;align=center;verticalAlign=middle;resizable=0;points=[];" vertex="1" connectable="0" parent="9l9PwQH1jKQ2nE-yAXZs-38">
          <mxGeometry x="-0.2193" y="-1" relative="1" as="geometry">
            <mxPoint x="-9" y="-9" as="offset" />
          </mxGeometry>
        </mxCell>
        <mxCell id="9l9PwQH1jKQ2nE-yAXZs-43" value="" style="endArrow=classic;html=1;rounded=0;" edge="1" parent="1">
          <mxGeometry width="50" height="50" relative="1" as="geometry">
            <mxPoint x="100" y="720" as="sourcePoint" />
            <mxPoint x="240" y="720" as="targetPoint" />
          </mxGeometry>
        </mxCell>
        <mxCell id="9l9PwQH1jKQ2nE-yAXZs-44" value="&lt;font class=&quot;default_cursor_cs&quot; face=&quot;Times New Roman&quot;&gt;Выбор услуги&lt;/font&gt;" style="edgeLabel;html=1;align=center;verticalAlign=middle;resizable=0;points=[];" vertex="1" connectable="0" parent="9l9PwQH1jKQ2nE-yAXZs-43">
          <mxGeometry x="-0.2193" y="-1" relative="1" as="geometry">
            <mxPoint x="15" y="-9" as="offset" />
          </mxGeometry>
        </mxCell>
        <mxCell id="9l9PwQH1jKQ2nE-yAXZs-45" value="" style="endArrow=classic;html=1;rounded=0;" edge="1" parent="1">
          <mxGeometry width="50" height="50" relative="1" as="geometry">
            <mxPoint x="386" y="740" as="sourcePoint" />
            <mxPoint x="240" y="740" as="targetPoint" />
          </mxGeometry>
        </mxCell>
        <mxCell id="9l9PwQH1jKQ2nE-yAXZs-46" value="&lt;font style=&quot;font-size: 9px;&quot; class=&quot;default_cursor_cs&quot; face=&quot;Times New Roman&quot;&gt;Изменение информации об услугах&lt;/font&gt;" style="edgeLabel;html=1;align=center;verticalAlign=middle;resizable=0;points=[];" vertex="1" connectable="0" parent="9l9PwQH1jKQ2nE-yAXZs-45">
          <mxGeometry x="-0.2193" y="-1" relative="1" as="geometry">
            <mxPoint x="-9" y="-9" as="offset" />
          </mxGeometry>
        </mxCell>
        <mxCell id="9l9PwQH1jKQ2nE-yAXZs-47" value="" style="endArrow=classic;html=1;rounded=0;" edge="1" parent="1">
          <mxGeometry width="50" height="50" relative="1" as="geometry">
            <mxPoint x="100" y="760" as="sourcePoint" />
            <mxPoint x="240" y="760" as="targetPoint" />
          </mxGeometry>
        </mxCell>
        <mxCell id="9l9PwQH1jKQ2nE-yAXZs-48" value="&lt;font class=&quot;default_cursor_cs&quot; face=&quot;Times New Roman&quot;&gt;Приобретение услуги&lt;/font&gt;" style="edgeLabel;html=1;align=center;verticalAlign=middle;resizable=0;points=[];" vertex="1" connectable="0" parent="9l9PwQH1jKQ2nE-yAXZs-47">
          <mxGeometry x="-0.2193" y="-1" relative="1" as="geometry">
            <mxPoint x="15" y="-9" as="offset" />
          </mxGeometry>
        </mxCell>
        <mxCell id="9l9PwQH1jKQ2nE-yAXZs-49" value="" style="endArrow=classic;html=1;rounded=0;" edge="1" parent="1">
          <mxGeometry width="50" height="50" relative="1" as="geometry">
            <mxPoint x="536" y="780" as="sourcePoint" />
            <mxPoint x="100" y="780" as="targetPoint" />
          </mxGeometry>
        </mxCell>
        <mxCell id="9l9PwQH1jKQ2nE-yAXZs-50" value="&lt;font style=&quot;font-size: 11px;&quot; class=&quot;default_cursor_cs&quot; face=&quot;Times New Roman&quot;&gt;Работа с клиентом&lt;/font&gt;" style="edgeLabel;html=1;align=center;verticalAlign=middle;resizable=0;points=[];" vertex="1" connectable="0" parent="9l9PwQH1jKQ2nE-yAXZs-49">
          <mxGeometry x="-0.2193" y="-1" relative="1" as="geometry">
            <mxPoint x="-46" y="-9" as="offset" />
          </mxGeometry>
        </mxCell>
        <mxCell id="9l9PwQH1jKQ2nE-yAXZs-51" value="" style="endArrow=classic;html=1;rounded=0;" edge="1" parent="1">
          <mxGeometry width="50" height="50" relative="1" as="geometry">
            <mxPoint x="543" y="800" as="sourcePoint" />
            <mxPoint x="250" y="800" as="targetPoint" />
          </mxGeometry>
        </mxCell>
        <mxCell id="9l9PwQH1jKQ2nE-yAXZs-52" value="&lt;font style=&quot;font-size: 11px;&quot; class=&quot;default_cursor_cs&quot; face=&quot;Times New Roman&quot;&gt;Ознакомление с услугой&lt;/font&gt;" style="edgeLabel;html=1;align=center;verticalAlign=middle;resizable=0;points=[];" vertex="1" connectable="0" parent="9l9PwQH1jKQ2nE-yAXZs-51">
          <mxGeometry x="-0.2193" y="-1" relative="1" as="geometry">
            <mxPoint x="-46" y="-9" as="offset" />
          </mxGeometry>
        </mxCell>
        <mxCell id="9l9PwQH1jKQ2nE-yAXZs-53" value="" style="endArrow=classic;html=1;rounded=0;" edge="1" parent="1">
          <mxGeometry width="50" height="50" relative="1" as="geometry">
            <mxPoint x="386" y="820" as="sourcePoint" />
            <mxPoint x="240" y="820" as="targetPoint" />
          </mxGeometry>
        </mxCell>
        <mxCell id="9l9PwQH1jKQ2nE-yAXZs-54" value="&lt;font class=&quot;default_cursor_cs&quot; face=&quot;Times New Roman&quot;&gt;Удаление услуги&lt;/font&gt;" style="edgeLabel;html=1;align=center;verticalAlign=middle;resizable=0;points=[];" vertex="1" connectable="0" parent="9l9PwQH1jKQ2nE-yAXZs-53">
          <mxGeometry x="-0.2193" y="-1" relative="1" as="geometry">
            <mxPoint x="-9" y="-9" as="offset" />
          </mxGeometry>
        </mxCell>
        <mxCell id="9l9PwQH1jKQ2nE-yAXZs-55" value="&lt;font class=&quot;default_cursor_cs&quot; face=&quot;Times New Roman&quot;&gt;Клиент&lt;/font&gt;" style="swimlane;fontStyle=0;childLayout=stackLayout;horizontal=1;startSize=30;horizontalStack=0;resizeParent=1;resizeParentMax=0;resizeLast=0;collapsible=1;marginBottom=0;whiteSpace=wrap;html=1;" vertex="1" parent="1">
          <mxGeometry x="-28" y="1110" width="140" height="120" as="geometry">
            <mxRectangle x="30" y="970" width="60" height="30" as="alternateBounds" />
          </mxGeometry>
        </mxCell>
        <mxCell id="9l9PwQH1jKQ2nE-yAXZs-56" value="&lt;font face=&quot;Times New Roman&quot;&gt;Выбор услуги&lt;/font&gt;" style="text;strokeColor=none;fillColor=none;align=left;verticalAlign=middle;spacingLeft=4;spacingRight=4;overflow=hidden;points=[[0,0.5],[1,0.5]];portConstraint=eastwest;rotatable=0;whiteSpace=wrap;html=1;" vertex="1" parent="9l9PwQH1jKQ2nE-yAXZs-55">
          <mxGeometry y="30" width="140" height="30" as="geometry" />
        </mxCell>
        <mxCell id="9l9PwQH1jKQ2nE-yAXZs-57" value="&lt;font class=&quot;default_cursor_cs&quot; face=&quot;Times New Roman&quot;&gt;Приобретение услуги&lt;/font&gt;" style="text;strokeColor=none;fillColor=none;align=left;verticalAlign=middle;spacingLeft=4;spacingRight=4;overflow=hidden;points=[[0,0.5],[1,0.5]];portConstraint=eastwest;rotatable=0;whiteSpace=wrap;html=1;" vertex="1" parent="9l9PwQH1jKQ2nE-yAXZs-55">
          <mxGeometry y="60" width="140" height="30" as="geometry" />
        </mxCell>
        <mxCell id="9l9PwQH1jKQ2nE-yAXZs-58" value="&lt;font face=&quot;Times New Roman&quot;&gt;Изучение информации об услугах&lt;/font&gt;" style="text;strokeColor=none;fillColor=none;align=left;verticalAlign=middle;spacingLeft=4;spacingRight=4;overflow=hidden;points=[[0,0.5],[1,0.5]];portConstraint=eastwest;rotatable=0;whiteSpace=wrap;html=1;" vertex="1" parent="9l9PwQH1jKQ2nE-yAXZs-55">
          <mxGeometry y="90" width="140" height="30" as="geometry" />
        </mxCell>
        <mxCell id="9l9PwQH1jKQ2nE-yAXZs-61" value="&lt;font class=&quot;default_cursor_cs&quot; face=&quot;Times New Roman&quot;&gt;Оформление услуги&lt;/font&gt;" style="ellipse;whiteSpace=wrap;html=1;" vertex="1" parent="1">
          <mxGeometry x="534" y="510" width="100" height="40" as="geometry" />
        </mxCell>
        <mxCell id="9l9PwQH1jKQ2nE-yAXZs-62" value="" style="endArrow=classic;html=1;rounded=0;entryX=0;entryY=0.5;entryDx=0;entryDy=0;" edge="1" parent="1" target="9l9PwQH1jKQ2nE-yAXZs-61">
          <mxGeometry width="50" height="50" relative="1" as="geometry">
            <mxPoint x="420" y="470" as="sourcePoint" />
            <mxPoint x="490" y="570" as="targetPoint" />
          </mxGeometry>
        </mxCell>
        <mxCell id="9l9PwQH1jKQ2nE-yAXZs-63" value="" style="endArrow=classic;html=1;rounded=0;" edge="1" parent="1">
          <mxGeometry width="50" height="50" relative="1" as="geometry">
            <mxPoint x="534" y="850" as="sourcePoint" />
            <mxPoint x="98" y="850" as="targetPoint" />
          </mxGeometry>
        </mxCell>
        <mxCell id="9l9PwQH1jKQ2nE-yAXZs-64" value="&lt;font style=&quot;font-size: 11px;&quot; class=&quot;default_cursor_cs&quot; face=&quot;Times New Roman&quot;&gt;Оформление услуги&lt;/font&gt;" style="edgeLabel;html=1;align=center;verticalAlign=middle;resizable=0;points=[];" vertex="1" connectable="0" parent="9l9PwQH1jKQ2nE-yAXZs-63">
          <mxGeometry x="-0.2193" y="-1" relative="1" as="geometry">
            <mxPoint x="-46" y="-9" as="offset" />
          </mxGeometry>
        </mxCell>
        <mxCell id="9l9PwQH1jKQ2nE-yAXZs-65" value="&lt;font class=&quot;default_cursor_cs&quot; face=&quot;Times New Roman&quot;&gt;Услуга&lt;/font&gt;" style="swimlane;fontStyle=0;childLayout=stackLayout;horizontal=1;startSize=30;horizontalStack=0;resizeParent=1;resizeParentMax=0;resizeLast=0;collapsible=1;marginBottom=0;whiteSpace=wrap;html=1;" vertex="1" parent="1">
          <mxGeometry x="192" y="1040" width="140" height="120" as="geometry">
            <mxRectangle x="30" y="970" width="60" height="30" as="alternateBounds" />
          </mxGeometry>
        </mxCell>
        <mxCell id="9l9PwQH1jKQ2nE-yAXZs-66" value="&lt;font class=&quot;default_cursor_cs&quot; face=&quot;Times New Roman&quot;&gt;Цена&lt;/font&gt;" style="text;strokeColor=none;fillColor=none;align=left;verticalAlign=middle;spacingLeft=4;spacingRight=4;overflow=hidden;points=[[0,0.5],[1,0.5]];portConstraint=eastwest;rotatable=0;whiteSpace=wrap;html=1;" vertex="1" parent="9l9PwQH1jKQ2nE-yAXZs-65">
          <mxGeometry y="30" width="140" height="30" as="geometry" />
        </mxCell>
        <mxCell id="9l9PwQH1jKQ2nE-yAXZs-67" value="&lt;font class=&quot;default_cursor_cs&quot; face=&quot;Times New Roman&quot;&gt;Нотариус&lt;/font&gt;" style="text;strokeColor=none;fillColor=none;align=left;verticalAlign=middle;spacingLeft=4;spacingRight=4;overflow=hidden;points=[[0,0.5],[1,0.5]];portConstraint=eastwest;rotatable=0;whiteSpace=wrap;html=1;" vertex="1" parent="9l9PwQH1jKQ2nE-yAXZs-65">
          <mxGeometry y="60" width="140" height="30" as="geometry" />
        </mxCell>
        <mxCell id="9l9PwQH1jKQ2nE-yAXZs-68" value="&lt;font class=&quot;default_cursor_cs&quot; face=&quot;Times New Roman&quot;&gt;Информация&lt;/font&gt;" style="text;strokeColor=none;fillColor=none;align=left;verticalAlign=middle;spacingLeft=4;spacingRight=4;overflow=hidden;points=[[0,0.5],[1,0.5]];portConstraint=eastwest;rotatable=0;whiteSpace=wrap;html=1;" vertex="1" parent="9l9PwQH1jKQ2nE-yAXZs-65">
          <mxGeometry y="90" width="140" height="30" as="geometry" />
        </mxCell>
        <mxCell id="9l9PwQH1jKQ2nE-yAXZs-69" value="&lt;font class=&quot;default_cursor_cs&quot; face=&quot;Times New Roman&quot;&gt;Администратор&lt;/font&gt;" style="swimlane;fontStyle=0;childLayout=stackLayout;horizontal=1;startSize=30;horizontalStack=0;resizeParent=1;resizeParentMax=0;resizeLast=0;collapsible=1;marginBottom=0;whiteSpace=wrap;html=1;" vertex="1" parent="1">
          <mxGeometry x="396" y="1040" width="140" height="120" as="geometry">
            <mxRectangle x="30" y="970" width="60" height="30" as="alternateBounds" />
          </mxGeometry>
        </mxCell>
        <mxCell id="9l9PwQH1jKQ2nE-yAXZs-70" value="&lt;font class=&quot;default_cursor_cs&quot; face=&quot;Times New Roman&quot;&gt;Добавление услуги&amp;nbsp;&lt;/font&gt;" style="text;strokeColor=none;fillColor=none;align=left;verticalAlign=middle;spacingLeft=4;spacingRight=4;overflow=hidden;points=[[0,0.5],[1,0.5]];portConstraint=eastwest;rotatable=0;whiteSpace=wrap;html=1;" vertex="1" parent="9l9PwQH1jKQ2nE-yAXZs-69">
          <mxGeometry y="30" width="140" height="30" as="geometry" />
        </mxCell>
        <mxCell id="9l9PwQH1jKQ2nE-yAXZs-71" value="&lt;font class=&quot;default_cursor_cs&quot; face=&quot;Times New Roman&quot;&gt;Изменение информации об услугах&lt;/font&gt;" style="text;strokeColor=none;fillColor=none;align=left;verticalAlign=middle;spacingLeft=4;spacingRight=4;overflow=hidden;points=[[0,0.5],[1,0.5]];portConstraint=eastwest;rotatable=0;whiteSpace=wrap;html=1;" vertex="1" parent="9l9PwQH1jKQ2nE-yAXZs-69">
          <mxGeometry y="60" width="140" height="30" as="geometry" />
        </mxCell>
        <mxCell id="9l9PwQH1jKQ2nE-yAXZs-72" value="&lt;font class=&quot;default_cursor_cs&quot; face=&quot;Times New Roman&quot;&gt;Удаление услуги&lt;/font&gt;" style="text;strokeColor=none;fillColor=none;align=left;verticalAlign=middle;spacingLeft=4;spacingRight=4;overflow=hidden;points=[[0,0.5],[1,0.5]];portConstraint=eastwest;rotatable=0;whiteSpace=wrap;html=1;" vertex="1" parent="9l9PwQH1jKQ2nE-yAXZs-69">
          <mxGeometry y="90" width="140" height="30" as="geometry" />
        </mxCell>
        <mxCell id="9l9PwQH1jKQ2nE-yAXZs-73" value="&lt;font class=&quot;default_cursor_cs&quot; face=&quot;Times New Roman&quot;&gt;Нотариус&lt;/font&gt;" style="swimlane;fontStyle=0;childLayout=stackLayout;horizontal=1;startSize=30;horizontalStack=0;resizeParent=1;resizeParentMax=0;resizeLast=0;collapsible=1;marginBottom=0;whiteSpace=wrap;html=1;" vertex="1" parent="1">
          <mxGeometry x="626" y="1090" width="140" height="120" as="geometry">
            <mxRectangle x="30" y="970" width="60" height="30" as="alternateBounds" />
          </mxGeometry>
        </mxCell>
        <mxCell id="9l9PwQH1jKQ2nE-yAXZs-74" value="&lt;font class=&quot;default_cursor_cs&quot; face=&quot;Times New Roman&quot;&gt;Ознакомление с услугой&lt;/font&gt;" style="text;strokeColor=none;fillColor=none;align=left;verticalAlign=middle;spacingLeft=4;spacingRight=4;overflow=hidden;points=[[0,0.5],[1,0.5]];portConstraint=eastwest;rotatable=0;whiteSpace=wrap;html=1;" vertex="1" parent="9l9PwQH1jKQ2nE-yAXZs-73">
          <mxGeometry y="30" width="140" height="30" as="geometry" />
        </mxCell>
        <mxCell id="9l9PwQH1jKQ2nE-yAXZs-75" value="&lt;font class=&quot;default_cursor_cs&quot; face=&quot;Times New Roman&quot;&gt;Работа с клиентом&lt;/font&gt;" style="text;strokeColor=none;fillColor=none;align=left;verticalAlign=middle;spacingLeft=4;spacingRight=4;overflow=hidden;points=[[0,0.5],[1,0.5]];portConstraint=eastwest;rotatable=0;whiteSpace=wrap;html=1;" vertex="1" parent="9l9PwQH1jKQ2nE-yAXZs-73">
          <mxGeometry y="60" width="140" height="30" as="geometry" />
        </mxCell>
        <mxCell id="9l9PwQH1jKQ2nE-yAXZs-76" value="&lt;font class=&quot;default_cursor_cs&quot; face=&quot;Times New Roman&quot;&gt;Оформление услуги&lt;/font&gt;" style="text;strokeColor=none;fillColor=none;align=left;verticalAlign=middle;spacingLeft=4;spacingRight=4;overflow=hidden;points=[[0,0.5],[1,0.5]];portConstraint=eastwest;rotatable=0;whiteSpace=wrap;html=1;" vertex="1" parent="9l9PwQH1jKQ2nE-yAXZs-73">
          <mxGeometry y="90" width="140" height="30" as="geometry" />
        </mxCell>
        <mxCell id="9l9PwQH1jKQ2nE-yAXZs-77" value="" style="endArrow=none;html=1;rounded=0;entryX=0;entryY=0.5;entryDx=0;entryDy=0;" edge="1" parent="1" target="9l9PwQH1jKQ2nE-yAXZs-68">
          <mxGeometry width="50" height="50" relative="1" as="geometry">
            <mxPoint x="112" y="1169" as="sourcePoint" />
            <mxPoint x="162" y="1119" as="targetPoint" />
          </mxGeometry>
        </mxCell>
        <mxCell id="9l9PwQH1jKQ2nE-yAXZs-79" value="" style="endArrow=none;html=1;rounded=0;entryX=0;entryY=0.5;entryDx=0;entryDy=0;" edge="1" parent="1" target="9l9PwQH1jKQ2nE-yAXZs-75">
          <mxGeometry width="50" height="50" relative="1" as="geometry">
            <mxPoint x="536" y="1125" as="sourcePoint" />
            <mxPoint x="586" y="1075" as="targetPoint" />
          </mxGeometry>
        </mxCell>
        <mxCell id="9l9PwQH1jKQ2nE-yAXZs-80" value="" style="endArrow=none;html=1;rounded=0;exitX=1.013;exitY=0.285;exitDx=0;exitDy=0;exitPerimeter=0;" edge="1" parent="1" source="9l9PwQH1jKQ2nE-yAXZs-67">
          <mxGeometry width="50" height="50" relative="1" as="geometry">
            <mxPoint x="350" y="1110" as="sourcePoint" />
            <mxPoint x="398.19" y="1110" as="targetPoint" />
          </mxGeometry>
        </mxCell>
      </root>
    </mxGraphModel>
  </diagram>
</mxfile>
